<?xml version="1.0" standalone="no"?><!DOCTYPE svg PUBLIC "-//W3C//DTD SVG 1.1//EN" "http://www.w3.org/Graphics/SVG/1.1/DTD/svg11.dtd"><svg t="1686055826477" class="icon" viewBox="0 0 1024 1024" version="1.1" xmlns="http://www.w3.org/2000/svg" p-id="2467" xmlns:xlink="http://www.w3.org/1999/xlink" width="200" height="200"><path d="M819.23072 614.4H563.2c-112.92672 0-204.8-91.87328-204.8-204.8 0-69.5296 34.8672-131.00032 88.00256-168.02816l-30.93504-30.90432a136.25344 136.25344 0 0 0-96.54272-39.99744c-70.93248 0-128.53248 54.26176-135.19872 123.46368L102.4 375.42912h86.12864C210.59584 506.42944 294.57408 616.09984 409.6 673.49504v179.83488h68.27008V700.33408a405.18656 405.18656 0 0 0 68.25984 13.70112v139.30496H614.4V716.76928h307.2L819.23072 614.4z" p-id="2468" fill="#ffffff"></path><path d="M563.2 546.12992h187.77088L496.16896 291.36896c-41.29792 23.5008-69.49888 67.4304-69.49888 118.23104 0 75.30496 61.25568 136.52992 136.52992 136.52992z" p-id="2469" fill="#ffffff"></path></svg>